HIERARCHY
ROOT Hips
{
	OFFSET 0.000000 0.000000 0.000000
	CHANNELS 6 Xposition Yposition Zposition Xrotation Yrotation Zrotation
	JOINT LeftUpLeg_virtual
	{
		OFFSET 0.000000 0.000000 0.000000
		CHANNELS 3 Xrotation Yrotation Zrotation
		JOINT LeftUpLeg
		{
			OFFSET 13.026900 -6.336304 -1.092800
			CHANNELS 3 Xrotation Yrotation Zrotation
			JOINT LeftLeg
			{
				OFFSET 0.524474 -46.096886 9.782700
				CHANNELS 3 Xrotation Yrotation Zrotation
				JOINT LeftFoot
				{
					OFFSET -0.524474 -53.427422 -12.948200
					CHANNELS 3 Xrotation Yrotation Zrotation
					JOINT LeftToeBase
					{
						OFFSET 0.192200 -14.009700 16.364100
						CHANNELS 3 Xrotation Yrotation Zrotation
						JOINT LeftToe_End
						{
							OFFSET -1.784700 -0.561700 9.474800
							CHANNELS 3 Xrotation Yrotation Zrotation
							End Site
							{
								OFFSET 0 0 0
							}
						}
					}
				}
			}
		}
	}
	JOINT RightUpLeg_virtual
	{
		OFFSET 0.000000 0.000000 0.000000
		CHANNELS 3 Xrotation Yrotation Zrotation
		JOINT RightUpLeg
		{
			OFFSET -12.883000 -6.336304 -1.092800
			CHANNELS 3 Xrotation Yrotation Zrotation
			JOINT RightLeg
			{
				OFFSET -0.524587 -46.096825 9.782800
				CHANNELS 3 Xrotation Yrotation Zrotation
				JOINT RightFoot
				{
					OFFSET 0.524587 -53.427383 -12.948300
					CHANNELS 3 Xrotation Yrotation Zrotation
					JOINT RightToeBase
					{
						OFFSET -0.192200 -14.009700 16.364100
						CHANNELS 3 Xrotation Yrotation Zrotation
						JOINT RightToe_End
						{
							OFFSET 1.784700 -0.561700 9.474800
							CHANNELS 3 Xrotation Yrotation Zrotation
							End Site
							{
								OFFSET 0 0 0
							}
						}
					}
				}
			}
		}
	}
	JOINT Spine_virtual
	{
		OFFSET 0.000000 0.000000 0.000000
		CHANNELS 3 Xrotation Yrotation Zrotation
		JOINT Spine
		{
			OFFSET 0.072000 7.257294 -0.789700
			CHANNELS 3 Xrotation Yrotation Zrotation
			JOINT Spine1
			{
				OFFSET 0.000000 12.508769 -0.658067
				CHANNELS 3 Xrotation Yrotation Zrotation
				JOINT Spine1_split
				{
					OFFSET 0.000000 12.508769 -0.658067
					CHANNELS 3 Xrotation Yrotation Zrotation
					JOINT Spine2
					{
						OFFSET 0.000000 12.508769 -0.658067
						CHANNELS 3 Xrotation Yrotation Zrotation
						JOINT Neck_virtual
						{
							OFFSET 0.000000 0.000000 0.000000
							CHANNELS 3 Xrotation Yrotation Zrotation
							JOINT Neck
							{
								OFFSET 0.000000 14.033295 7.520400
								CHANNELS 3 Xrotation Yrotation Zrotation
								JOINT Head
								{
									OFFSET 0.000000 8.198502 5.703100
									CHANNELS 3 Xrotation Yrotation Zrotation
									JOINT HeadTop_End
									{
										OFFSET 0.000000 17.760803 13.332701
										CHANNELS 3 Xrotation Yrotation Zrotation
										End Site
										{
											OFFSET 0 0 0
										}
									}
								}
							}
						}
						JOINT LeftShoulder_virtual
						{
							OFFSET 0.000000 0.000000 0.000000
							CHANNELS 3 Xrotation Yrotation Zrotation
							JOINT LeftShoulder
							{
								OFFSET 6.292450 5.785301 -0.669000
								CHANNELS 3 Xrotation Yrotation Zrotation
								JOINT LeftShoulder_split
								{
									OFFSET 6.292450 5.785301 -0.669000
									CHANNELS 3 Xrotation Yrotation Zrotation
									JOINT LeftArm
									{
										OFFSET 13.907140 -6.093903 1.965100
										CHANNELS 3 Xrotation Yrotation Zrotation
										JOINT LeftForeArm
										{
											OFFSET 34.140198 0.000000 0.000000
											CHANNELS 3 Xrotation Yrotation Zrotation
											JOINT LeftHand
											{
												OFFSET 40.960209 0.000000 0.000000
												CHANNELS 3 Xrotation Yrotation Zrotation
												End Site
												{
													OFFSET 0 0 0
												}
											}
										}
									}
								}
							}
						}
						JOINT RightShoulder_virtual
						{
							OFFSET 0.000000 0.000000 0.000000
							CHANNELS 3 Xrotation Yrotation Zrotation
							JOINT RightShoulder
							{
								OFFSET -6.292450 5.785301 -0.669000
								CHANNELS 3 Xrotation Yrotation Zrotation
								JOINT RightShoulder_split
								{
									OFFSET -6.292450 5.785301 -0.669000
									CHANNELS 3 Xrotation Yrotation Zrotation
									JOINT RightArm
									{
										OFFSET -13.907140 -6.093903 1.965100
										CHANNELS 3 Xrotation Yrotation Zrotation
										JOINT RightForeArm
										{
											OFFSET -34.140198 0.000000 0.000000
											CHANNELS 3 Xrotation Yrotation Zrotation
											JOINT RightHand
											{
												OFFSET -40.960209 0.000000 0.000000
												CHANNELS 3 Xrotation Yrotation Zrotation
												End Site
												{
													OFFSET 0 0 0
												}
											}
										}
									}
								}
							}
						}
					}
				}
			}
		}
	}
}
MOTION
Frames: 8
Frame Time: 0.03333333
-43.088413 112.260399 -43.155674 0.000000 0.000000 0.000000 3.361126 -1.515694 1.546736 -50.724864 3.887162 7.632817 42.468368 13.407309 0.073587 17.426628 8.646705 -3.321470 -5.997739 0.191550 0.466184 0.000000 0.000000 0.000000 4.175205 -0.689535 1.531240 0.746009 -15.861893 -5.795346 14.512567 -7.177392 -2.726026 -4.658193 -4.636255 17.857904 -11.617717 0.458143 -0.035050 0.000000 0.000000 0.000000 3.480010 0.718779 0.602069 2.946978 1.500838 -5.315567 2.275983 2.332978 -0.928747 0.924069 0.249247 0.080201 0.000000 0.000000 0.000000 2.060740 2.349709 -1.197042 0.705011 0.582026 0.559644 -1.343796 11.662527 3.190359 0.000000 0.000000 0.000000 1.460823 2.373583 -1.498628 0.552721 -2.923095 -12.022299 -0.878890 -0.451495 1.918693 -11.160253 23.251832 -36.274605 -1.329220 -63.182119 -0.498451 0.000000 0.000000 0.000000 1.726819 2.732604 -0.639824 1.042964 -2.498965 9.478461 2.269269 1.953601 -2.464405 -15.442308 -16.652107 46.643796 0.243546 15.728901 -0.086577 0.000000 0.000000 0.000000 
-41.917896 114.773109 -44.363041 0.000000 0.000000 0.000000 3.597887 -1.878013 2.313839 -45.035003 2.852889 10.086315 47.438188 11.699700 -0.422606 13.293418 11.552025 -1.858589 -4.377597 0.322740 -0.740245 0.000000 0.000000 0.000000 4.736568 -1.007516 2.234068 -3.961290 -16.328563 -9.807115 16.114066 -6.287971 -1.896853 -1.443086 -2.554793 18.177900 -13.013869 0.683699 -0.493371 0.000000 0.000000 0.000000 3.954031 0.650661 1.198041 2.800533 2.063101 -5.844335 1.704701 3.287976 -1.343108 0.617788 0.168673 0.216153 0.000000 0.000000 0.000000 1.572624 3.232620 -1.522745 -0.037692 0.289970 1.212221 -2.027562 9.592494 3.616916 0.000000 0.000000 0.000000 1.038674 3.309933 -1.966810 0.881607 -2.902928 -12.301841 -1.236231 -0.840883 2.191616 3.093327 29.284901 -43.597173 -1.076515 -65.213738 -0.480718 0.000000 0.000000 0.000000 1.327559 3.638985 -1.074631 1.020513 -2.342670 8.781495 2.893663 1.717100 -2.387293 -17.761168 -16.893013 44.627995 0.284896 16.984879 -0.441577 0.000000 0.000000 0.000000 
-40.421551 116.338791 -45.532063 0.000000 0.000000 0.000000 4.277397 -2.014459 2.211003 -39.327611 1.600948 13.701836 48.245700 11.064949 -0.857035 10.530527 15.050609 -0.367216 -1.176729 0.594942 -2.613738 0.000000 0.000000 0.000000 5.622721 -1.083837 2.206405 -6.684617 -15.435618 -12.982839 16.335941 -5.459997 -1.263210 0.104636 -1.337893 18.031020 -13.226811 0.820363 -0.623452 0.000000 0.000000 0.000000 4.870780 0.313137 1.135751 2.425477 2.549796 -5.993290 1.042807 4.080420 -1.577375 0.562644 0.192938 0.273364 0.000000 0.000000 0.000000 0.904457 3.962410 -1.709684 -0.779454 0.028532 1.816031 -2.095413 7.275982 4.073083 0.000000 0.000000 0.000000 0.508859 4.067559 -2.211078 1.160190 -2.704698 -11.745467 -1.800964 -1.450418 2.147519 15.640735 32.946295 -50.943833 -0.527912 -64.204502 -0.141466 0.000000 0.000000 0.000000 0.891840 4.386866 -1.346595 1.093309 -2.405841 8.304380 3.064905 1.676476 -2.077307 -19.460092 -17.629504 42.788065 0.207070 17.977601 -0.652759 0.000000 0.000000 0.000000 
-38.623295 116.690788 -46.540989 0.000000 0.000000 0.000000 5.445991 -1.159752 1.265621 -34.146844 0.512436 18.362356 45.396518 10.981581 -1.068275 9.043653 17.796128 0.083358 1.075407 0.814616 -4.447709 0.000000 0.000000 0.000000 6.520725 -0.021030 1.373767 -6.897144 -13.611061 -14.788826 15.082545 -4.796034 -0.903334 0.285020 -1.073695 18.342926 -12.779724 0.866886 -0.549263 0.000000 0.000000 0.000000 5.950049 0.701824 0.486944 1.877260 2.911888 -5.734839 0.394493 4.597799 -1.663619 0.961540 0.256637 0.513167 0.000000 0.000000 0.000000 0.192194 4.431847 -1.767161 -1.394470 -0.237255 2.247833 -1.609391 4.881697 4.507025 0.000000 0.000000 0.000000 -0.044784 4.528921 -2.235012 1.373814 -2.443706 -10.589343 -2.628585 -1.712574 1.553652 24.055042 35.186884 -56.501131 0.041775 -60.505934 0.309997 0.000000 0.000000 0.000000 0.477511 4.866770 -1.451668 1.239824 -2.556622 8.024262 2.776803 1.803295 -1.413366 -20.502915 -18.603665 40.839596 0.071189 18.999515 -0.684201 0.000000 0.000000 0.000000 
-36.500023 115.651169 -47.530346 0.000000 0.000000 0.000000 6.711504 1.112286 -0.104309 -30.632388 0.135380 23.633851 41.056974 10.667985 -1.116565 8.792777 18.185691 -1.061300 0.940149 0.916691 -5.483587 0.000000 0.000000 0.000000 7.381864 2.610311 -0.026685 -5.538852 -11.558077 -15.504721 12.804384 -4.149753 -0.817396 -0.306915 -1.444832 20.214874 -12.324030 0.843746 -0.482080 0.000000 0.000000 0.000000 7.021209 2.167742 -0.523741 1.315728 3.118695 -5.116132 -0.166458 4.795698 -1.669049 1.329896 0.566599 0.619947 0.000000 0.000000 0.000000 -0.478442 4.585398 -1.748996 -1.724147 -0.558938 2.474146 -0.770977 2.727432 4.823930 0.000000 0.000000 0.000000 -0.557581 4.655596 -2.097833 1.500884 -2.159570 -9.079732 -3.564919 -1.699330 0.596956 27.909288 37.131637 -59.501849 0.407743 -54.408659 0.637919 0.000000 0.000000 0.000000 0.149288 5.027061 -1.433607 1.416615 -2.771680 7.925063 2.372819 1.788114 -0.590594 -20.800187 -19.462508 38.721196 -0.037153 20.208303 -0.575047 0.000000 0.000000 0.000000 
-34.099880 113.477219 -48.369579 0.000000 0.000000 0.000000 7.944894 4.595738 -1.425552 -29.334061 0.213885 28.706240 37.080154 9.313561 -1.048525 10.205041 15.374028 -4.496327 -1.954282 0.886987 -5.151012 0.000000 0.000000 0.000000 8.023550 6.593109 -1.437774 -3.347732 -9.864505 -15.743678 10.734322 -3.437947 -0.897544 -1.358876 -2.442127 23.519833 -11.858787 0.771852 -0.549132 0.000000 0.000000 0.000000 7.875691 4.875383 -1.447968 0.808387 3.143535 -4.335187 -0.573698 4.675978 -1.661656 1.596708 0.939688 0.489388 0.000000 0.000000 0.000000 -1.043638 4.436585 -1.717793 -1.767770 -0.936524 2.545976 0.177703 0.976986 4.972591 0.000000 0.000000 0.000000 -0.951952 4.489473 -1.895805 1.559155 -1.980506 -7.615863 -4.594479 -1.363154 -0.742667 27.968689 39.202441 -60.031427 0.444798 -46.705619 0.738510 0.000000 0.000000 0.000000 -0.089054 4.870545 -1.380003 1.555983 -3.029345 7.904320 1.981789 1.693698 0.345091 -20.469034 -20.005320 36.460052 0.029663 21.601235 -0.491538 0.000000 0.000000 0.000000 
-31.454334 110.688782 -49.069721 0.000000 0.000000 0.000000 8.796496 8.808250 -2.177944 -29.617176 0.323876 32.433174 34.562765 7.027133 -0.874011 11.831959 10.291113 -9.023188 -5.995525 0.629751 -3.722495 0.000000 0.000000 0.000000 8.439388 11.379338 -2.375849 -1.147170 -9.063411 -16.107570 10.165283 -3.132634 -0.978170 -2.800456 -4.363046 26.516065 -10.645684 0.657213 -0.655516 0.000000 0.000000 0.000000 8.461407 8.911814 -1.998535 0.399066 3.013416 -3.664649 -0.857093 4.326369 -1.652846 1.738176 1.171913 0.317388 0.000000 0.000000 0.000000 -1.465018 4.053720 -1.697483 -1.666815 -1.396927 2.496430 0.956372 -0.210923 4.908563 0.000000 0.000000 0.000000 -1.168512 4.115148 -1.690897 1.577393 -1.918284 -6.549982 -5.060834 -0.876997 -1.875916 25.560438 40.738062 -58.452971 0.340243 -38.825637 0.689663 0.000000 0.000000 0.000000 -0.272272 4.476891 -1.334641 1.597781 -3.373274 8.015543 1.698599 1.665171 0.951463 -19.986320 -20.473207 34.454193 0.308551 23.228734 -0.560560 0.000000 0.000000 0.000000 
-28.599318 107.898651 -50.031010 0.000000 0.000000 0.000000 9.227431 13.419483 -2.135380 -30.399273 0.714554 33.979187 33.166418 5.019642 -0.582159 11.658126 5.171389 -13.213019 -8.080233 0.222524 -1.996788 0.000000 0.000000 0.000000 8.650904 16.085056 -2.460083 0.398378 -9.088277 -17.076945 11.424590 -3.485280 -1.070920 -5.081139 -7.167927 27.519228 -8.559584 0.532879 -0.681647 0.000000 0.000000 0.000000 8.867476 13.279012 -1.947168 0.042676 2.752236 -3.209674 -1.010186 3.852484 -1.637215 1.818560 1.309888 -0.059807 0.000000 0.000000 0.000000 -1.735403 3.562128 -1.701198 -1.496325 -1.867791 2.455370 1.503380 -0.774899 4.610428 0.000000 0.000000 0.000000 -1.223622 3.642501 -1.522481 1.540851 -2.016896 -6.064101 -5.087835 -0.630156 -2.549413 22.063733 41.183274 -55.705425 0.133595 -31.948381 0.518381 0.000000 0.000000 0.000000 -0.403449 3.970164 -1.322781 1.533990 -3.827874 8.256823 1.337662 1.695804 1.099968 -20.079643 -20.961755 33.210057 0.727473 25.332960 -0.800278 0.000000 0.000000 0.000000 
